<svg width="181" height="45" viewBox="0 0 181 45" fill="none" xmlns="http://www.w3.org/2000/svg">
<path fill-rule="evenodd" clip-rule="evenodd" d="M-0.94301 4.66994C-1.02358 4.80032 -1.0181 5.09366 -0.930494 5.32181C-0.807944 5.64096 -0.387362 5.73639 0.898632 5.73639H2.56844L2.43207 26.2049L0.737231 26.3352C-0.537551 26.4333 -0.957612 26.5626 -0.957612 26.8567C-0.957612 27.1894 -0.151388 27.2583 4.45285 27.3183C9.73085 27.3871 9.86331 27.3759 9.86331 26.8619C9.86331 26.3874 9.69512 26.3352 8.16846 26.3352H6.47362V15.5678L8.74445 15.7422C12.2927 16.015 12.8345 16.6347 13.2668 20.9154C13.7179 25.3804 14.2055 26.4966 16.0477 27.2815C17.8554 28.0517 21.4931 27.4429 21.2829 26.4054C21.1875 25.9347 20.9105 25.9087 19.3385 26.2229C18.1091 26.4685 17.7347 25.6985 17.4155 22.2702C17.27 20.7055 17.0226 19.0148 16.8659 18.5129C16.4761 17.265 15.2135 16.0001 13.83 15.4718L12.6775 15.0317L13.5711 14.5733C17.7647 12.4219 17.5149 7.09018 13.1244 5.04568C11.8708 4.46187 11.5681 4.43762 5.51121 4.43527C2.00132 4.43371 -0.861397 4.53801 -0.94301 4.66994ZM78.7469 5.01934C78.8217 5.54631 78.9962 5.61384 80.46 5.68372L82.0897 5.76116V26.3352H80.3948C78.8739 26.3352 78.7 26.3887 78.7 26.8567C78.7 27.3613 78.8739 27.3782 84.0453 27.3782C89.1731 27.3782 89.3905 27.3576 89.3905 26.8692C89.3905 26.4268 89.177 26.3498 87.7609 26.2826L86.1312 26.2049L85.9894 16.4269H95.6484V26.3352H93.9536C92.4326 26.3352 92.2587 26.3887 92.2587 26.8567C92.2587 27.3613 92.4326 27.3782 97.604 27.3782C102.775 27.3782 102.949 27.3613 102.949 26.8567C102.949 26.3887 102.775 26.3352 101.254 26.3352H99.5596V5.76116L101.189 5.68372C102.653 5.61384 102.827 5.54631 102.902 5.01934L102.986 4.43267H92.2225L92.3057 5.01934C92.3805 5.54631 92.5549 5.61384 94.0188 5.68372L95.6484 5.76116V15.1232H86.0008V5.73639H87.6957C89.3298 5.73639 89.3905 5.71292 89.3905 5.08453V4.43267H78.6637L78.7469 5.01934ZM6.66918 5.62479C6.56149 5.73405 6.47362 7.81557 6.47362 10.2507V14.6781L8.44225 14.5118C9.52486 14.4202 10.6382 14.2236 10.9165 14.0748C11.8517 13.5741 12.3167 12.2683 12.307 10.1691C12.2966 7.92352 11.8176 6.73374 10.6899 6.15045C9.84036 5.7111 6.95548 5.33406 6.66918 5.62479ZM113.169 7.31077C109.011 8.15741 105.407 12.3426 105.096 16.6846C104.722 21.9141 107.825 26.3467 112.704 27.5508C114.153 27.9083 114.734 27.9339 116.014 27.6956C119.197 27.1037 121.821 25.05 123.343 21.9599C124.147 20.3272 124.2 20.0513 124.2 17.4762C124.2 14.9516 124.136 14.5965 123.396 13.0365C121.482 8.99649 117.057 6.51915 113.169 7.31077ZM21.3822 8.14229C21.4558 8.66065 21.6383 8.74487 22.8354 8.8137L24.2043 8.89271L24.2105 15.5931C24.2139 19.2784 24.3234 22.7544 24.4541 23.3174C25.2345 26.6826 28.729 28.4327 33.1059 27.6504C34.637 27.3769 35.075 27.1655 36.1923 26.1611C38.1515 24.3995 38.2845 23.7286 38.2845 15.6111V8.89271L39.6534 8.8137C40.8461 8.74513 41.033 8.65934 41.1058 8.14828C41.1887 7.56447 41.1715 7.56161 37.6326 7.56161C34.0938 7.56161 34.0766 7.56447 34.1595 8.14828C34.2323 8.65934 34.4192 8.74513 35.6119 8.8137L36.9808 8.89271L36.975 15.8538C36.9685 23.733 36.8543 24.3059 35.009 25.7136C34.1074 26.4015 33.8406 26.4656 31.8798 26.4656C30.1052 26.4656 29.6353 26.3759 29.1506 25.9441C27.856 24.7914 27.7499 24.1082 27.6446 16.2452L27.5462 8.89271L29.0693 8.81396C30.3923 8.74539 30.5925 8.66638 30.5925 8.21347C30.5925 7.71414 30.3949 7.68885 25.9453 7.6208L21.2983 7.54935L21.3822 8.14229ZM41.8304 7.78063C41.7436 7.92117 41.7441 8.22259 41.8317 8.45075C41.9498 8.75869 42.3521 8.86533 43.3969 8.86533H44.8031V26.3092L43.3039 26.3874C42.1798 26.4461 41.8046 26.5634 41.8046 26.8567C41.8046 27.1808 42.5427 27.2812 46.1069 27.4421C48.8275 27.5649 51.0216 27.5357 52.0751 27.3631C55.6671 26.7736 57.582 25.0378 57.7885 22.1844C57.9562 19.8656 56.8686 18.1027 54.7221 17.2136C53.9631 16.8991 53.6432 16.4269 54.1892 16.4269C54.7185 16.4269 56.5171 14.5386 56.7977 13.6881C57.4407 11.74 56.4282 9.58499 54.3203 8.41528C53.0273 7.69798 52.9712 7.6912 47.5024 7.60854C44.0897 7.55691 41.9282 7.62236 41.8304 7.78063ZM58.9303 8.14828C59.0012 8.64761 59.1957 8.74669 60.2364 8.8137L61.459 8.89271L67.2272 19.0438V26.3352H65.7931C64.5329 26.3352 64.359 26.3983 64.359 26.8567C64.359 27.3589 64.5329 27.3782 69.0524 27.3782C73.5719 27.3782 73.7458 27.3589 73.7458 26.8567C73.7458 26.3983 73.5719 26.3352 72.3117 26.3352H70.8776V18.025L75.7014 8.88019L76.8878 8.87289C78.1451 8.86481 78.7487 8.51333 78.5214 7.92091C78.415 7.64374 77.6789 7.56161 75.2978 7.56161C73.6006 7.56161 72.1462 7.66825 72.0656 7.79888C71.7107 8.37278 72.2588 8.86533 73.2522 8.86533C73.8105 8.86533 74.2673 8.93182 74.2673 9.01291C74.2673 9.31121 70.22 16.6804 70.0545 16.684C69.8897 16.6874 65.6627 9.3292 65.6627 9.03873C65.6627 8.96076 66.1029 8.86038 66.6405 8.81579C67.4259 8.75086 67.6348 8.61945 67.7018 8.14828L67.7849 7.56161H58.8471L58.9303 8.14828ZM126.255 7.94021C125.999 8.60615 126.414 8.86533 127.735 8.86533H129.024V26.3352H127.59C126.329 26.3352 126.156 26.3983 126.156 26.8567C126.156 27.3524 126.329 27.3782 129.676 27.3782C133.022 27.3782 133.196 27.3524 133.196 26.8567C133.196 26.3983 133.022 26.3352 131.762 26.3352H130.327V18.8605C130.327 14.7496 130.381 11.4394 130.447 11.5051C130.512 11.5706 131.785 15.1396 133.275 19.4359C134.953 24.2741 136.124 27.2742 136.35 27.3175C136.611 27.367 137.31 25.644 138.784 21.3203C139.922 17.9836 141.178 14.3736 141.575 13.298L142.296 11.3424L142.322 26.3352H140.888C139.627 26.3352 139.454 26.3983 139.454 26.8567C139.454 27.3589 139.627 27.3782 144.147 27.3782C148.666 27.3782 148.84 27.3589 148.84 26.8567C148.84 26.3983 148.666 26.3352 147.406 26.3352H145.972V8.89271L147.341 8.8137C148.539 8.74487 148.72 8.66091 148.794 8.14046L148.879 7.5457L142.238 7.69198L140.843 11.7335C140.075 13.9564 139.02 16.9941 138.497 18.4837L137.546 21.1923L132.874 7.56161H129.637C127.048 7.56161 126.371 7.63748 126.255 7.94021ZM149.669 8.14437C149.742 8.66012 149.927 8.74487 151.122 8.8137L152.491 8.89271V26.3352H151.057C149.793 26.3352 149.623 26.3978 149.623 26.8604C149.623 27.3772 149.754 27.3842 158.162 27.3167L166.701 27.2479V24.1189C166.701 21.1874 166.669 20.99 166.191 20.99C165.815 20.99 165.597 21.283 165.356 22.1125C164.888 23.7309 164.077 24.9186 162.973 25.6036C162.149 26.1144 161.579 26.2158 159.075 26.2969L156.141 26.3916V17.4699H157.302C159.344 17.4699 160.184 18.2297 160.69 20.5347C160.821 21.131 161.024 21.3811 161.377 21.3811C161.852 21.3811 161.878 21.1441 161.878 16.799C161.878 12.6649 161.835 12.225 161.444 12.3012C161.19 12.3504 160.835 12.9079 160.588 13.6463C159.939 15.5863 159.24 16.1662 157.548 16.1662H156.141V8.82048L159.119 8.90809C161.872 8.98892 162.152 9.04525 162.805 9.64757C163.194 10.0061 163.792 10.9237 164.134 11.6866C164.586 12.6949 164.879 13.05 165.207 12.9867C165.599 12.911 165.658 12.558 165.658 10.2958V7.69198L149.585 7.55404L149.669 8.14437ZM112.544 8.69898C110.055 9.80349 108.953 12.5773 108.948 17.7479C108.943 23.5703 110.484 26.2985 113.917 26.5467C116.062 26.7019 117.157 26.4359 118.222 25.5014C119.928 24.0029 120.444 22.1005 120.438 17.321C120.432 12.474 119.479 9.9881 117.206 8.88775C115.943 8.27605 113.701 8.18531 112.544 8.69898ZM48.3884 8.7566C48.281 8.86429 48.1928 10.5753 48.1928 12.5593V16.1662H49.8731C51.2693 16.1662 51.6761 16.0608 52.2784 15.5425C52.9285 14.9835 53.0137 14.717 53.1019 12.9734C53.2064 10.9051 52.8104 9.64313 51.9058 9.16023C51.2735 8.82283 48.6259 8.51906 48.3884 8.7566ZM48.1928 26.3923L50.132 26.2943C51.7353 26.2135 52.1853 26.0888 52.7319 25.5757C53.6758 24.6889 54.0116 23.4225 53.8737 21.2711C53.6807 18.267 52.8424 17.4699 49.8754 17.4699H48.1928V26.3923ZM-0.693998 37.5423C-0.78552 37.6904 -0.700778 37.8729 -0.50574 37.9478C0.152901 38.2004 7.38936 37.9509 7.32156 37.6777C7.23239 37.3165 -0.47393 37.1867 -0.693998 37.5423ZM157.839 37.5423C157.747 37.6904 157.832 37.8729 158.027 37.9478C158.686 38.2004 165.922 37.9509 165.855 37.6777C165.765 37.3165 158.059 37.1867 157.839 37.5423Z" fill="#BF3448"/>
<path d="M14.1994 39.483H15.9151V40.1547H13.3671V35.0806H14.1994V39.483Z" fill="#BF3448"/>
<path d="M21.3786 35.0806V38.3149C21.3786 38.6994 21.4783 38.989 21.6779 39.1837C21.8823 39.3784 22.1646 39.4757 22.5248 39.4757C22.8898 39.4757 23.1721 39.3784 23.3717 39.1837C23.5761 38.989 23.6783 38.6994 23.6783 38.3149V35.0806H24.5106V38.3003C24.5106 38.714 24.4206 39.0645 24.2405 39.3516C24.0604 39.6388 23.8195 39.853 23.5177 39.9941C23.2159 40.1353 22.8825 40.2058 22.5175 40.2058C22.1524 40.2058 21.819 40.1353 21.5173 39.9941C21.2204 39.853 20.9843 39.6388 20.8091 39.3516C20.6339 39.0645 20.5463 38.714 20.5463 38.3003V35.0806H21.3786Z" fill="#BF3448"/>
<path d="M31.8657 37.6213L33.4427 40.1547H32.5082L31.362 38.3149L30.2887 40.1547H29.3615L30.9385 37.6213L29.3542 35.0806H30.2887L31.4423 36.935L32.5228 35.0806H33.45L31.8657 37.6213Z" fill="#BF3448"/>
<path d="M39.1239 35.0806V38.3149C39.1239 38.6994 39.2237 38.989 39.4233 39.1837C39.6277 39.3784 39.91 39.4757 40.2702 39.4757C40.6352 39.4757 40.9175 39.3784 41.1171 39.1837C41.3215 38.989 41.4237 38.6994 41.4237 38.3149V35.0806H42.256V38.3003C42.256 38.714 42.1659 39.0645 41.9859 39.3516C41.8058 39.6388 41.5648 39.853 41.2631 39.9941C40.9613 40.1353 40.6279 40.2058 40.2629 40.2058C39.8978 40.2058 39.5644 40.1353 39.2626 39.9941C38.9657 39.853 38.7297 39.6388 38.5545 39.3516C38.3792 39.0645 38.2916 38.714 38.2916 38.3003V35.0806H39.1239Z" fill="#BF3448"/>
<path d="M49.9177 40.1547L48.7496 38.1251H48.1144V40.1547H47.2821V35.0806H49.0343C49.4237 35.0806 49.7522 35.1488 50.0199 35.2851C50.2925 35.4213 50.4945 35.6039 50.6259 35.8326C50.7622 36.0614 50.8303 36.3169 50.8303 36.5992C50.8303 36.9302 50.733 37.2319 50.5383 37.5045C50.3485 37.7722 50.054 37.9547 49.6549 38.0521L50.9106 40.1547H49.9177ZM48.1144 37.4607H49.0343C49.3458 37.4607 49.5795 37.3828 49.7352 37.2271C49.8958 37.0713 49.9761 36.862 49.9761 36.5992C49.9761 36.3364 49.8983 36.132 49.7425 35.9859C49.5868 35.835 49.3507 35.7596 49.0343 35.7596H48.1144V37.4607Z" fill="#BF3448"/>
<path d="M59.5975 35.0806L57.9183 38.3149V40.1547H57.086V38.3149L55.3995 35.0806H56.3267L57.5021 37.5702L58.6776 35.0806H59.5975Z" fill="#BF3448"/>
<path d="M72.675 40.1547L71.5069 38.1251H70.8717V40.1547H70.0394V35.0806H71.7916C72.181 35.0806 72.5095 35.1488 72.7772 35.2851C73.0498 35.4213 73.2518 35.6039 73.3832 35.8326C73.5195 36.0614 73.5876 36.3169 73.5876 36.5992C73.5876 36.9302 73.4903 37.2319 73.2956 37.5045C73.1058 37.7722 72.8113 37.9547 72.4122 38.0521L73.6679 40.1547H72.675ZM70.8717 37.4607H71.7916C72.1031 37.4607 72.3367 37.3828 72.4925 37.2271C72.6531 37.0713 72.7334 36.862 72.7334 36.5992C72.7334 36.3364 72.6556 36.132 72.4998 35.9859C72.344 35.835 72.108 35.7596 71.7916 35.7596H70.8717V37.4607Z" fill="#BF3448"/>
<path d="M79.4271 35.7523V37.2417H81.1793V37.9207H79.4271V39.4757H81.3984V40.1547H78.5948V35.0733H81.3984V35.7523H79.4271Z" fill="#BF3448"/>
<path d="M89.425 39.118H87.3005L86.9354 40.1547H86.0666L87.8845 35.0733H88.8482L90.6662 40.1547H89.7901L89.425 39.118ZM89.1914 38.439L88.3664 36.0808L87.5341 38.439H89.1914Z" fill="#BF3448"/>
<path d="M96.2314 39.483H97.9471V40.1547H95.3991V35.0806H96.2314V39.483Z" fill="#BF3448"/>
<path d="M109.257 35.7523V37.2417H111.009V37.9207H109.257V39.4757H111.228V40.1547H108.425V35.0733H111.228V35.7523H109.257Z" fill="#BF3448"/>
<path d="M117.868 40.2058C117.527 40.2058 117.22 40.1474 116.948 40.0306C116.675 39.9089 116.461 39.7386 116.305 39.5196C116.149 39.3005 116.072 39.045 116.072 38.753H116.962C116.982 38.972 117.067 39.1521 117.218 39.2932C117.374 39.4344 117.59 39.5049 117.868 39.5049C118.155 39.5049 118.379 39.4368 118.539 39.3005C118.7 39.1594 118.78 38.9793 118.78 38.7603C118.78 38.5899 118.729 38.4512 118.627 38.3441C118.53 38.237 118.405 38.1543 118.255 38.0959C118.108 38.0375 117.904 37.9742 117.641 37.9061C117.31 37.8185 117.04 37.7308 116.831 37.6432C116.626 37.5508 116.451 37.4096 116.305 37.2198C116.159 37.03 116.086 36.7769 116.086 36.4605C116.086 36.1685 116.159 35.9129 116.305 35.6939C116.451 35.4749 116.656 35.307 116.918 35.1901C117.181 35.0733 117.485 35.0149 117.831 35.0149C118.323 35.0149 118.724 35.139 119.036 35.3873C119.352 35.6306 119.527 35.9665 119.561 36.3948H118.641C118.627 36.2098 118.539 36.0516 118.379 35.9202C118.218 35.7888 118.006 35.7231 117.743 35.7231C117.505 35.7231 117.31 35.7839 117.159 35.9056C117.009 36.0273 116.933 36.2025 116.933 36.4313C116.933 36.587 116.979 36.716 117.072 36.8182C117.169 36.9156 117.291 36.9935 117.437 37.0519C117.583 37.1103 117.782 37.1735 118.035 37.2417C118.371 37.3342 118.644 37.4266 118.853 37.5191C119.067 37.6116 119.247 37.7552 119.393 37.9499C119.544 38.1397 119.62 38.3952 119.62 38.7165C119.62 38.9744 119.549 39.2178 119.408 39.4465C119.272 39.6753 119.07 39.8603 118.802 40.0014C118.539 40.1377 118.228 40.2058 117.868 40.2058Z" fill="#BF3448"/>
<path d="M127.822 35.0806V35.7596H126.472V40.1547H125.639V35.7596H124.281V35.0806H127.822Z" fill="#BF3448"/>
<path d="M135.667 39.118H133.542L133.177 40.1547H132.308L134.126 35.0733H135.09L136.908 40.1547H136.032L135.667 39.118ZM135.433 38.439L134.608 36.0808L133.776 38.439H135.433Z" fill="#BF3448"/>
<path d="M144.919 35.0806V35.7596H143.568V40.1547H142.736V35.7596H141.378V35.0806H144.919Z" fill="#BF3448"/>
<path d="M150.537 35.7523V37.2417H152.289V37.9207H150.537V39.4757H152.508V40.1547H149.704V35.0733H152.508V35.7523H150.537Z" fill="#BF3448"/>
</svg>
